# xmcd
#
# Track frame offsets:
#	150
#	13208
#	22898
#	33436
#	43074
#	55449
#	66152
#	77567
#	90737
#	100322
#	113125
#
# Disc length: 1660 seconds
#
# Revision: 1
# Processed by: cddbd v1.5.2PL0 Copyright (c) Steve Scherf et al.
# Submitted via: audiograbber 1.83.01
#
DISCID=8a067a0b
DTITLE=George Jones and Tammy Wynette - We're Gonna Hold On
DYEAR=1974
DGENRE=Country
TTITLE0=We're Gonna Hold On
TTITLE1=When True Love Steps In
TTITLE2=Never Ending Song Of Love
TTITLE3=Would'nt I?
TTITLE4=Roll In My Sweet Baby's Arms
TTITLE5=(We're Not) The Jet Set
TTITLE6=Crawdad Song
TTITLE7=If Loveing You Starts Hurting Me
TTITLE8=That Man Of Mine
TTITLE9=The Woman Loves Me Right
TTITLE10=As Long As We Can
EXTD=This CD was created from one of my LP's
EXTT0=
EXTT1=
EXTT2=
EXTT3=
EXTT4=
EXTT5=
EXTT6=
EXTT7=
EXTT8=
EXTT9=
EXTT10=
PLAYORDER=
